<?xml version="1.0" encoding="iso-8859-1"?>
<!-- Uploaded to: SVG Repo, www.svgrepo.com, Generator: SVG Repo Mixer Tools -->
<svg fill="#530031" height="24" width="24" version="1.1" id="Layer_1" xmlns="http://www.w3.org/2000/svg" xmlns:xlink="http://www.w3.org/1999/xlink" 
	 viewBox="0 0 512 512" xml:space="preserve">
<g>
	<g>
		<path d="M330.776,194.164l-68.381-86.032c-1.55-1.951-3.904-3.086-6.396-3.086c-2.491,0-4.846,1.136-6.396,3.086L181.26,194.12
			c-13.462,16.973-20.579,37.428-20.579,59.156c0,45.693,32.572,85.065,77.45,93.617c4.433,0.845,8.712-2.064,9.555-6.497
			c0.844-4.433-2.064-8.711-6.496-9.555c-37.182-7.085-64.168-39.706-64.168-77.565c0-18.002,5.892-34.947,17.035-48.995
			L256,126.347l61.979,77.978c11.121,14.021,17,30.948,17,48.951c0,37.859-26.986,70.48-64.168,77.565
			c-4.432,0.844-7.34,5.122-6.496,9.555c0.746,3.916,4.171,6.643,8.016,6.643c0.508,0,1.022-0.047,1.539-0.146
			c44.876-8.552,77.45-47.923,77.45-93.617C351.319,231.548,344.217,211.109,330.776,194.164z"/>
	</g>
</g>
<g>
	<g>
		<path d="M424.874,397.618c-0.022-0.001-98.326-0.001-98.326-0.001c53.331-26.172,90.134-81.036,90.134-144.341
			c0-18.564-3.147-36.772-9.351-54.115L359.759,56.807c-0.79-2.363-2.613-4.237-4.954-5.088c-2.338-0.851-4.941-0.59-7.066,0.712
			l-31.007,19.017L262.396,3.086C260.845,1.136,258.491,0,256,0c-2.491,0-4.846,1.136-6.396,3.086l-54.336,68.362l-31.007-19.017
			c-2.125-1.303-4.728-1.564-7.066-0.712c-2.34,0.852-4.165,2.726-4.954,5.088L104.67,199.159
			c-6.205,17.343-9.351,35.548-9.351,54.116c0,63.305,36.803,118.169,90.134,144.341H87.149c-31.536,0-57.193,25.656-57.193,57.192
			c0,31.536,25.657,57.192,57.193,57.192h337.703c31.547-0.013,57.192-25.663,57.192-57.192S456.399,397.63,424.874,397.618z
			 M111.659,253.276c0-16.713,2.835-33.094,8.423-48.687c0.02-0.056,0.038-0.111,0.058-0.168l44.34-132.685l28.411,17.424
			c3.52,2.158,8.098,1.351,10.667-1.881L256,21.301l52.442,65.977c2.569,3.233,7.146,4.039,10.667,1.881l28.411-17.424
			l44.34,132.685c0.02,0.056,0.038,0.112,0.058,0.167c5.59,15.596,8.423,31.977,8.423,48.687
			c0,79.59-64.751,144.341-144.341,144.341S111.659,332.866,111.659,253.276z M87.149,495.659
			c-22.526,0-40.852-18.325-40.852-40.851c0-22.526,18.326-40.851,40.852-40.851h297.732c-10.616,10.389-17.221,24.86-17.221,40.851
			c0,15.991,6.605,30.462,17.221,40.851H87.149z M424.852,495.659c-22.526,0-40.851-18.325-40.851-40.851
			c0-22.526,18.325-40.851,40.851-40.851c22.526,0,40.851,18.325,40.851,40.851C465.703,477.334,447.378,495.659,424.852,495.659z"
			/>
	</g>
</g>
<g>
	<g>
		<path d="M103.489,446.638H70.808c-4.513,0-8.17,3.658-8.17,8.17c0,4.512,3.657,8.17,8.17,8.17h32.681
			c4.513,0,8.17-3.658,8.17-8.17C111.659,450.296,108.002,446.638,103.489,446.638z"/>
	</g>
</g>
<g>
	<g>
		<path d="M343.149,446.638H136.17c-4.513,0-8.17,3.658-8.17,8.17c0,4.512,3.657,8.17,8.17,8.17h206.98
			c4.513,0,8.17-3.658,8.17-8.17C351.32,450.296,347.663,446.638,343.149,446.638z"/>
	</g>
</g>
<g>
	<g>
		<circle cx="441.193" cy="253.278" r="8.17"/>
	</g>
</g>
<g>
	<g>
		<circle cx="314.838" cy="129.275" r="8.17"/>
	</g>
</g>
<g>
	<g>
		<circle cx="159.995" cy="8.17" r="8.17"/>
	</g>
</g>
<g>
	<g>
		<circle cx="70.808" cy="253.278" r="8.17"/>
	</g>
</g>
<g>
	<g>
		<circle cx="70.808" cy="220.597" r="8.17"/>
	</g>
</g>
<g>
	<g>
		<circle cx="256.001" cy="220.597" r="8.17"/>
	</g>
</g>
<g>
	<g>
		<circle cx="288.682" cy="253.278" r="8.17"/>
	</g>
</g>
</svg>